<svg width="66" height="66" viewBox="0 0 66.38 66.39" xmlns="http://www.w3.org/2000/svg">
  <defs>
    <linearGradient id="g" x1="0%" y1="0%" x2="100%" y2="100%">
      <stop offset="0%" stop-color="#e5a312"/>
      <stop offset="100%" stop-color="#d4920a"/>
    </linearGradient>
  </defs>
  <path fill="url(#g)" d="M33.19,0C14.86,0,0,14.86,0,33.2s14.86,33.19,33.19,33.19,33.19-14.86,33.19-33.19S51.52,0,33.19,0ZM10.06,21.83l2.28-8.92,1.38-.8c.68,1.37,2.71,2.36,6.09,2.97,2.67.79,3.7,2.5,3.09,5.15-1.65,7.74-2.12,12.71-1.41,14.89.51,1.59,1.07,3.21,1.67,4.87-1.59-.46-2.96-.78-4.13-.97-.11-.02-.22-.03-.33-.03-.52,0-1.02.2-1.4.57-.22.21-.44.43-.65.65-.27-1.62-.33-2.91-.17-3.87.34-2.08.72-4.32,1.12-6.72.41-2.4-.53-3.84-2.82-4.33-2.82-.58-4.39-1.74-4.72-3.46ZM28.33,52.78c-.15.15-.3.28-.45.41-.2.16-.39.3-.57.43-.66.45-1.25.67-1.78.67-.28,0-.54-.06-.79-.19-1.4-.51-2.73-.97-4-1.4-3.68-1.24-6.81-2.14-9.39-2.7,1.54-2.51,3.47-4.98,5.8-7.43.49-.53,1.01-1.05,1.55-1.58,1.73.29,3.99.9,6.79,1.83.8.27,1.64.56,2.53.88.59-3.63,1.9-7.55,3.9-11.76,1.08-2.15.87-3.69-.63-4.63l-3.42-2.17c-1.88-1.28-2.61-2.77-2.19-4.48l5.5-8.28,1.56-.27c0,1.49,1.18,3,3.59,4.55l1.95,1.3c2.59,1.65,3.08,4.16,1.49,7.55-.7,1.37-1.75,3.92-3.14,7.66-1.23,3.28-1.87,6.63-1.93,10.05-.02.47-.01.95,0,1.43-.73,1.22-2.25,3.27-4.55,6.14-.47.58-.92,1.1-1.34,1.53-.16.17-.32.32-.48.46ZM56.29,20.84c-.24,2.97-1.46,7.77-3.66,14.4-2.19,6.63-4.35,11.12-6.45,13.48-2.11,2.37-6.11,3.99-12.01,4.88-1.68.26-3.18.47-4.5.66.65-.6,1.33-1.33,2.04-2.21,2.38-2.98,3.92-5.06,4.71-6.38.19-.33.29-.7.28-1.08-.02-.58-.01-1.16.01-1.75,3.23-.66,5.61-1.47,7.14-2.42,1.83-1.15,3.39-3.06,4.67-5.74,1.28-2.68,2.09-4.67,2.44-5.98.34-1.3-.03-2.14-1.13-2.49l-2.85-1.03c-1.88-.66-2.95-1.77-3.2-3.32l1.9-8.95,1.37-.8c.64,1.12,1.5,1.87,2.59,2.25l3.97,1.29c2.03.49,2.92,2.21,2.68,5.19Z"/>
</svg>
